{
	"asset":{
		"generator":"Khronos glTF Blender I/O v3.6.28",
		"version":"2.0"
	},
	"scene":0,
	"scenes":[
		{
			"name":"Scene",
			"nodes":[
				0
			]
		}
	],
	"nodes":[
		{
			"mesh":0,
			"name":"baloncesto"
		}
	],
	"materials":[
		{
			"doubleSided":true,
			"name":"Material.006",
			"pbrMetallicRoughness":{
				"baseColorFactor":[
					0.8103699684143066,
					0.19837352633476257,
					0.04772903397679329,
					1
				],
				"metallicFactor":0.3231707215309143,
				"roughnessFactor":0.5670731663703918
			}
		},
		{
			"doubleSided":true,
			"name":"Material.007",
			"pbrMetallicRoughness":{
				"baseColorFactor":[
					0.0031277374364435673,
					0.009370763786137104,
					0.011011230759322643,
					1
				],
				"metallicFactor":0.18902438879013062,
				"roughnessFactor":0.45121949911117554
			}
		}
	],
	"meshes":[
		{
			"name":"Basketball_0.001",
			"primitives":[
				{
					"attributes":{
						"POSITION":0,
						"NORMAL":1,
						"TEXCOORD_0":2
					},
					"indices":3,
					"material":0
				},
				{
					"attributes":{
						"POSITION":4,
						"NORMAL":5,
						"TEXCOORD_0":6
					},
					"indices":7,
					"material":1
				}
			]
		}
	],
	"accessors":[
		{
			"bufferView":0,
			"componentType":5126,
			"count":448,
			"max":[
				1.7795194387435913,
				1.780739665031433,
				1.7844533920288086
			],
			"min":[
				-1.7795194387435913,
				-1.780739665031433,
				-1.7844533920288086
			],
			"type":"VEC3"
		},
		{
			"bufferView":1,
			"componentType":5126,
			"count":448,
			"type":"VEC3"
		},
		{
			"bufferView":2,
			"componentType":5126,
			"count":448,
			"type":"VEC2"
		},
		{
			"bufferView":3,
			"componentType":5123,
			"count":1872,
			"type":"SCALAR"
		},
		{
			"bufferView":4,
			"componentType":5126,
			"count":496,
			"max":[
				1.7795196771621704,
				1.780739665031433,
				1.7844533920288086
			],
			"min":[
				-1.7795194387435913,
				-1.7807397842407227,
				-1.7844533920288086
			],
			"type":"VEC3"
		},
		{
			"bufferView":5,
			"componentType":5126,
			"count":496,
			"type":"VEC3"
		},
		{
			"bufferView":6,
			"componentType":5126,
			"count":496,
			"type":"VEC2"
		},
		{
			"bufferView":7,
			"componentType":5123,
			"count":1680,
			"type":"SCALAR"
		}
	],
	"bufferViews":[
		{
			"buffer":0,
			"byteLength":5376,
			"byteOffset":0,
			"target":34962
		},
		{
			"buffer":0,
			"byteLength":5376,
			"byteOffset":5376,
			"target":34962
		},
		{
			"buffer":0,
			"byteLength":3584,
			"byteOffset":10752,
			"target":34962
		},
		{
			"buffer":0,
			"byteLength":3744,
			"byteOffset":14336,
			"target":34963
		},
		{
			"buffer":0,
			"byteLength":5952,
			"byteOffset":18080,
			"target":34962
		},
		{
			"buffer":0,
			"byteLength":5952,
			"byteOffset":24032,
			"target":34962
		},
		{
			"buffer":0,
			"byteLength":3968,
			"byteOffset":29984,
			"target":34962
		},
		{
			"buffer":0,
			"byteLength":3360,
			"byteOffset":33952,
			"target":34963
		}
	],
	"buffers":[
		{
			"byteLength":37312,
			"uri":"data:application/octet-stream;base64,"
		}
	]
}
