{
	"asset":{
		"generator":"Khronos glTF Blender I/O v3.6.28",
		"version":"2.0"
	},
	"scene":0,
	"scenes":[
		{
			"name":"Scene",
			"nodes":[
				0
			]
		}
	],
	"nodes":[
		{
			"mesh":0,
			"name":"pCylinder22_lambert5_0",
			"scale":[
				1.0200679302215576,
				1.0200679302215576,
				1.0200679302215576
			]
		}
	],
	"materials":[
		{
			"doubleSided":true,
			"name":"lambert5",
			"pbrMetallicRoughness":{
				"baseColorTexture":{
					"index":0
				},
				"metallicFactor":0,
				"roughnessFactor":0.6000000238418579
			}
		}
	],
	"meshes":[
		{
			"name":"pCylinder22_lambert5_0",
			"primitives":[
				{
					"attributes":{
						"POSITION":0,
						"NORMAL":1,
						"TEXCOORD_0":2
					},
					"indices":3,
					"material":0
				}
			]
		}
	],
	"textures":[
		{
			"sampler":0,
			"source":0
		}
	],
	"images":[
		{
			"bufferView":4,
			"mimeType":"image/png",
			"name":"Image_0"
		}
	],
	"accessors":[
		{
			"bufferView":0,
			"componentType":5126,
			"count":5819,
			"max":[
				1.6027964353561401,
				1.3683112859725952,
				1.2767030000686646
			],
			"min":[
				-1.3822581768035889,
				-1.3776243925094604,
				-1.5577858686447144
			],
			"type":"VEC3"
		},
		{
			"bufferView":1,
			"componentType":5126,
			"count":5819,
			"type":"VEC3"
		},
		{
			"bufferView":2,
			"componentType":5126,
			"count":5819,
			"type":"VEC2"
		},
		{
			"bufferView":3,
			"componentType":5123,
			"count":11859,
			"type":"SCALAR"
		}
	],
	"bufferViews":[
		{
			"buffer":0,
			"byteLength":69828,
			"byteOffset":0,
			"target":34962
		},
		{
			"buffer":0,
			"byteLength":69828,
			"byteOffset":69828,
			"target":34962
		},
		{
			"buffer":0,
			"byteLength":46552,
			"byteOffset":139656,
			"target":34962
		},
		{
			"buffer":0,
			"byteLength":23718,
			"byteOffset":186208,
			"target":34963
		},
		{
			"buffer":0,
			"byteLength":20997,
			"byteOffset":209928
		}
	],
	"samplers":[
		{
			"magFilter":9729,
			"minFilter":9987
		}
	],
	"buffers":[
		{
			"byteLength":230928,
			"uri":"data:application/octet-stream;base64,"
		}
	]
}
