{
	"asset":{
		"generator":"Khronos glTF Blender I/O v3.6.28",
		"version":"2.0"
	},
	"scene":0,
	"scenes":[
		{
			"name":"Scene",
			"nodes":[
				0
			]
		}
	],
	"nodes":[
		{
			"mesh":0,
			"name":"boxing_gloves.L_boxing_gloves_0.001"
		}
	],
	"materials":[
		{
			"doubleSided":true,
			"name":"boxing_gloves",
			"pbrMetallicRoughness":{
				"baseColorTexture":{
					"index":0
				},
				"metallicFactor":0,
				"roughnessFactor":0.25790250301361084
			}
		}
	],
	"meshes":[
		{
			"name":"boxing_gloves.L_boxing_gloves_0.001",
			"primitives":[
				{
					"attributes":{
						"POSITION":0,
						"NORMAL":1,
						"TEXCOORD_0":2
					},
					"indices":3,
					"material":0
				}
			]
		}
	],
	"textures":[
		{
			"sampler":0,
			"source":0
		}
	],
	"images":[
		{
			"bufferView":4,
			"mimeType":"image/png",
			"name":"Image_0"
		}
	],
	"accessors":[
		{
			"bufferView":0,
			"componentType":5126,
			"count":6338,
			"max":[
				2.241873025894165,
				2.6673221588134766,
				0.8157467842102051
			],
			"min":[
				-2.207953929901123,
				-0.40941160917282104,
				-1.2224754095077515
			],
			"type":"VEC3"
		},
		{
			"bufferView":1,
			"componentType":5126,
			"count":6338,
			"type":"VEC3"
		},
		{
			"bufferView":2,
			"componentType":5126,
			"count":6338,
			"type":"VEC2"
		},
		{
			"bufferView":3,
			"componentType":5123,
			"count":31584,
			"type":"SCALAR"
		}
	],
	"bufferViews":[
		{
			"buffer":0,
			"byteLength":76056,
			"byteOffset":0,
			"target":34962
		},
		{
			"buffer":0,
			"byteLength":76056,
			"byteOffset":76056,
			"target":34962
		},
		{
			"buffer":0,
			"byteLength":50704,
			"byteOffset":152112,
			"target":34962
		},
		{
			"buffer":0,
			"byteLength":63168,
			"byteOffset":202816,
			"target":34963
		},
		{
			"buffer":0,
			"byteLength":208611,
			"byteOffset":265984
		}
	],
	"samplers":[
		{
			"magFilter":9729,
			"minFilter":9987
		}
	],
	"buffers":[
		{
			"byteLength":474596,
			"uri":"data:application/octet-stream;base64,"
		}
	]
}
