{
	"asset":{
		"generator":"Khronos glTF Blender I/O v3.6.28",
		"version":"2.0"
	},
	"scene":0,
	"scenes":[
		{
			"name":"Scene",
			"nodes":[
				0
			]
		}
	],
	"nodes":[
		{
			"mesh":0,
			"name":"polySurface697_lambert2_0",
			"scale":[
				1.0200679302215576,
				1.0200679302215576,
				1.0200679302215576
			]
		}
	],
	"materials":[
		{
			"doubleSided":true,
			"name":"lambert2",
			"pbrMetallicRoughness":{
				"baseColorTexture":{
					"index":0
				},
				"metallicFactor":0,
				"roughnessFactor":0.5
			}
		}
	],
	"meshes":[
		{
			"name":"polySurface697_lambert2_0",
			"primitives":[
				{
					"attributes":{
						"POSITION":0,
						"NORMAL":1,
						"TEXCOORD_0":2
					},
					"indices":3,
					"material":0
				}
			]
		}
	],
	"textures":[
		{
			"sampler":0,
			"source":0
		}
	],
	"images":[
		{
			"bufferView":4,
			"mimeType":"image/jpeg",
			"name":"Image_0"
		}
	],
	"accessors":[
		{
			"bufferView":0,
			"componentType":5126,
			"count":7434,
			"max":[
				1.8810572624206543,
				1.9062809944152832,
				0.7128587365150452
			],
			"min":[
				-1.7505505084991455,
				-1.3030738830566406,
				-0.7128588557243347
			],
			"type":"VEC3"
		},
		{
			"bufferView":1,
			"componentType":5126,
			"count":7434,
			"type":"VEC3"
		},
		{
			"bufferView":2,
			"componentType":5126,
			"count":7434,
			"type":"VEC2"
		},
		{
			"bufferView":3,
			"componentType":5123,
			"count":11469,
			"type":"SCALAR"
		}
	],
	"bufferViews":[
		{
			"buffer":0,
			"byteLength":89208,
			"byteOffset":0,
			"target":34962
		},
		{
			"buffer":0,
			"byteLength":89208,
			"byteOffset":89208,
			"target":34962
		},
		{
			"buffer":0,
			"byteLength":59472,
			"byteOffset":178416,
			"target":34962
		},
		{
			"buffer":0,
			"byteLength":22938,
			"byteOffset":237888,
			"target":34963
		},
		{
			"buffer":0,
			"byteLength":85395,
			"byteOffset":260828
		}
	],
	"samplers":[
		{
			"magFilter":9729,
			"minFilter":9987
		}
	],
	"buffers":[
		{
			"byteLength":346224,
			"uri":"data:application/octet-stream;base64,"
		}
	]
}
