{
	"asset":{
		"generator":"Khronos glTF Blender I/O v3.6.28",
		"version":"2.0"
	},
	"scene":0,
	"scenes":[
		{
			"name":"Scene",
			"nodes":[
				0
			]
		}
	],
	"nodes":[
		{
			"mesh":0,
			"name":"Object_2",
			"scale":[
				1.2718607187271118,
				1.2718607187271118,
				1.2718607187271118
			]
		}
	],
	"materials":[
		{
			"alphaMode":"BLEND",
			"doubleSided":true,
			"name":"Mat_3",
			"pbrMetallicRoughness":{
				"baseColorFactor":[
					0.5830404758453369,
					0.5830404758453369,
					0.5830404758453369,
					1
				],
				"metallicFactor":0.6590908765792847,
				"roughnessFactor":0.19025875627994537
			}
		}
	],
	"meshes":[
		{
			"name":"Object_0.001",
			"primitives":[
				{
					"attributes":{
						"POSITION":0,
						"NORMAL":1,
						"TEXCOORD_0":2
					},
					"indices":3,
					"material":0
				}
			]
		}
	],
	"accessors":[
		{
			"bufferView":0,
			"componentType":5126,
			"count":1516,
			"max":[
				1.3795427083969116,
				1.4641886949539185,
				1.4935005903244019
			],
			"min":[
				-1.396633267402649,
				-1.4619593620300293,
				-1.5036280155181885
			],
			"type":"VEC3"
		},
		{
			"bufferView":1,
			"componentType":5126,
			"count":1516,
			"type":"VEC3"
		},
		{
			"bufferView":2,
			"componentType":5126,
			"count":1516,
			"type":"VEC2"
		},
		{
			"bufferView":3,
			"componentType":5123,
			"count":4680,
			"type":"SCALAR"
		}
	],
	"bufferViews":[
		{
			"buffer":0,
			"byteLength":18192,
			"byteOffset":0,
			"target":34962
		},
		{
			"buffer":0,
			"byteLength":18192,
			"byteOffset":18192,
			"target":34962
		},
		{
			"buffer":0,
			"byteLength":12128,
			"byteOffset":36384,
			"target":34962
		},
		{
			"buffer":0,
			"byteLength":9360,
			"byteOffset":48512,
			"target":34963
		}
	],
	"buffers":[
		{
			"byteLength":57872,
			"uri":"data:application/octet-stream;base64,"
		}
	]
}
