{
	"asset":{
		"generator":"Khronos glTF Blender I/O v3.6.28",
		"version":"2.0"
	},
	"extensionsUsed":[
		"KHR_materials_emissive_strength"
	],
	"scene":0,
	"scenes":[
		{
			"name":"Scene",
			"nodes":[
				0,
				1
			]
		}
	],
	"nodes":[
		{
			"camera":0,
			"name":"Camera",
			"rotation":[
				-0.013961692340672016,
				0.003490354400128126,
				4.87425277242437e-05,
				0.9998964667320251
			],
			"translation":[
				-0.07316836714744568,
				19.81121826171875,
				49.513057708740234
			]
		},
		{
			"mesh":0,
			"name":"Cube.002"
		}
	],
	"cameras":[
		{
			"name":"Camera.001",
			"perspective":{
				"aspectRatio":1.7777777777777777,
				"yfov":0.39959652046304894,
				"zfar":1000,
				"znear":0.10000000149011612
			},
			"type":"perspective"
		}
	],
	"materials":[
		{
			"alphaMode":"BLEND",
			"doubleSided":true,
			"name":"puesto",
			"pbrMetallicRoughness":{
				"baseColorFactor":[
					1,
					0.9040705561637878,
					0.8079346418380737,
					1
				],
				"metallicFactor":0,
				"roughnessFactor":0.5
			}
		},
		{
			"alphaMode":"BLEND",
			"doubleSided":true,
			"emissiveFactor":[
				1,
				1,
				1
			],
			"extensions":{
				"KHR_materials_emissive_strength":{
					"emissiveStrength":5.099999904632568
				}
			},
			"name":"Material.001",
			"pbrMetallicRoughness":{
				"metallicFactor":0,
				"roughnessFactor":0.5
			}
		},
		{
			"doubleSided":true,
			"emissiveFactor":[
				1,
				0.9479387450491101,
				0.8013995192134981
			],
			"extensions":{
				"KHR_materials_emissive_strength":{
					"emissiveStrength":4.10290411710406
				}
			},
			"name":"Material.005",
			"pbrMetallicRoughness":{
				"baseColorFactor":[
					1,
					0.9706563949584961,
					0.7606973648071289,
					1
				],
				"metallicFactor":0
			}
		}
	],
	"meshes":[
		{
			"name":"Cube.004",
			"primitives":[
				{
					"attributes":{
						"POSITION":0,
						"NORMAL":1,
						"TEXCOORD_0":2
					},
					"indices":3,
					"material":0
				},
				{
					"attributes":{
						"POSITION":4,
						"NORMAL":5,
						"TEXCOORD_0":6
					},
					"indices":7,
					"material":1
				},
				{
					"attributes":{
						"POSITION":8,
						"NORMAL":9,
						"TEXCOORD_0":10
					},
					"indices":11,
					"material":2
				}
			]
		}
	],
	"accessors":[
		{
			"bufferView":0,
			"componentType":5126,
			"count":201,
			"max":[
				17.113367080688477,
				30.25680160522461,
				2.1114501953125
			],
			"min":[
				-17.743793487548828,
				0.031800270080566406,
				-10.638908386230469
			],
			"type":"VEC3"
		},
		{
			"bufferView":1,
			"componentType":5126,
			"count":201,
			"type":"VEC3"
		},
		{
			"bufferView":2,
			"componentType":5126,
			"count":201,
			"type":"VEC2"
		},
		{
			"bufferView":3,
			"componentType":5123,
			"count":462,
			"type":"SCALAR"
		},
		{
			"bufferView":4,
			"componentType":5126,
			"count":48,
			"max":[
				16.681175231933594,
				25.033977508544922,
				-5.422774314880371
			],
			"min":[
				-17.560108184814453,
				9.511371612548828,
				-6.452995300292969
			],
			"type":"VEC3"
		},
		{
			"bufferView":5,
			"componentType":5126,
			"count":48,
			"type":"VEC3"
		},
		{
			"bufferView":6,
			"componentType":5126,
			"count":48,
			"type":"VEC2"
		},
		{
			"bufferView":7,
			"componentType":5123,
			"count":72,
			"type":"SCALAR"
		},
		{
			"bufferView":8,
			"componentType":5126,
			"count":2700,
			"max":[
				13.08729362487793,
				26.182018280029297,
				0.32773876190185547
			],
			"min":[
				-12.284314155578613,
				22.82322120666504,
				-1.469853162765503
			],
			"type":"VEC3"
		},
		{
			"bufferView":9,
			"componentType":5126,
			"count":2700,
			"type":"VEC3"
		},
		{
			"bufferView":10,
			"componentType":5126,
			"count":2700,
			"type":"VEC2"
		},
		{
			"bufferView":11,
			"componentType":5123,
			"count":5328,
			"type":"SCALAR"
		}
	],
	"bufferViews":[
		{
			"buffer":0,
			"byteLength":2412,
			"byteOffset":0,
			"target":34962
		},
		{
			"buffer":0,
			"byteLength":2412,
			"byteOffset":2412,
			"target":34962
		},
		{
			"buffer":0,
			"byteLength":1608,
			"byteOffset":4824,
			"target":34962
		},
		{
			"buffer":0,
			"byteLength":924,
			"byteOffset":6432,
			"target":34963
		},
		{
			"buffer":0,
			"byteLength":576,
			"byteOffset":7356,
			"target":34962
		},
		{
			"buffer":0,
			"byteLength":576,
			"byteOffset":7932,
			"target":34962
		},
		{
			"buffer":0,
			"byteLength":384,
			"byteOffset":8508,
			"target":34962
		},
		{
			"buffer":0,
			"byteLength":144,
			"byteOffset":8892,
			"target":34963
		},
		{
			"buffer":0,
			"byteLength":32400,
			"byteOffset":9036,
			"target":34962
		},
		{
			"buffer":0,
			"byteLength":32400,
			"byteOffset":41436,
			"target":34962
		},
		{
			"buffer":0,
			"byteLength":21600,
			"byteOffset":73836,
			"target":34962
		},
		{
			"buffer":0,
			"byteLength":10656,
			"byteOffset":95436,
			"target":34963
		}
	],
	"buffers":[
		{
			"byteLength":106092,
			"uri":"data:application/octet-stream;base64,"
		}
	]
}
