{
	"asset":{
		"generator":"Khronos glTF Blender I/O v3.6.28",
		"version":"2.0"
	},
	"scene":0,
	"scenes":[
		{
			"name":"Scene",
			"nodes":[
				0
			]
		}
	],
	"nodes":[
		{
			"mesh":0,
			"name":"Smartphone_Material_0"
		}
	],
	"materials":[
		{
			"doubleSided":true,
			"emissiveFactor":[
				0.20000000298023224,
				0.20000000298023224,
				0.20000000298023224
			],
			"emissiveTexture":{
				"index":0
			},
			"name":"Material",
			"normalTexture":{
				"index":1
			},
			"occlusionTexture":{
				"index":2
			},
			"pbrMetallicRoughness":{
				"baseColorTexture":{
					"index":3
				},
				"metallicRoughnessTexture":{
					"index":2
				}
			}
		}
	],
	"meshes":[
		{
			"name":"Smartphone_Material_0",
			"primitives":[
				{
					"attributes":{
						"POSITION":0,
						"NORMAL":1,
						"TEXCOORD_0":2
					},
					"indices":3,
					"material":0
				}
			]
		}
	],
	"textures":[
		{
			"sampler":0,
			"source":0
		},
		{
			"sampler":0,
			"source":1
		},
		{
			"sampler":0,
			"source":2
		},
		{
			"sampler":0,
			"source":3
		}
	],
	"images":[
		{
			"bufferView":4,
			"mimeType":"image/png",
			"name":"Image_2"
		},
		{
			"bufferView":5,
			"mimeType":"image/png",
			"name":"Image_3"
		},
		{
			"bufferView":6,
			"mimeType":"image/png",
			"name":"Image_1"
		},
		{
			"bufferView":7,
			"mimeType":"image/png",
			"name":"Image_0"
		}
	],
	"accessors":[
		{
			"bufferView":0,
			"componentType":5126,
			"count":556,
			"max":[
				1.5637153387069702,
				2.0556185245513916,
				1.5495866537094116
			],
			"min":[
				-1.5229004621505737,
				-2.1549973487854004,
				-1.531476378440857
			],
			"type":"VEC3"
		},
		{
			"bufferView":1,
			"componentType":5126,
			"count":556,
			"type":"VEC3"
		},
		{
			"bufferView":2,
			"componentType":5126,
			"count":556,
			"type":"VEC2"
		},
		{
			"bufferView":3,
			"componentType":5123,
			"count":2634,
			"type":"SCALAR"
		}
	],
	"bufferViews":[
		{
			"buffer":0,
			"byteLength":6672,
			"byteOffset":0,
			"target":34962
		},
		{
			"buffer":0,
			"byteLength":6672,
			"byteOffset":6672,
			"target":34962
		},
		{
			"buffer":0,
			"byteLength":4448,
			"byteOffset":13344,
			"target":34962
		},
		{
			"buffer":0,
			"byteLength":5268,
			"byteOffset":17792,
			"target":34963
		},
		{
			"buffer":0,
			"byteLength":5044,
			"byteOffset":23060
		},
		{
			"buffer":0,
			"byteLength":50502,
			"byteOffset":28104
		},
		{
			"buffer":0,
			"byteLength":244499,
			"byteOffset":78608
		},
		{
			"buffer":0,
			"byteLength":56807,
			"byteOffset":323108
		}
	],
	"samplers":[
		{
			"magFilter":9729,
			"minFilter":9987
		}
	],
	"buffers":[
		{
			"byteLength":379916,
			"uri":"data:application/octet-stream;base64,"
		}
	]
}
