{
	"asset":{
		"generator":"Khronos glTF Blender I/O v3.6.28",
		"version":"2.0"
	},
	"scene":0,
	"scenes":[
		{
			"name":"Scene",
			"nodes":[
				0
			]
		}
	],
	"nodes":[
		{
			"mesh":0,
			"name":"BarraOlimpica_Barras_0"
		}
	],
	"materials":[
		{
			"doubleSided":true,
			"name":"Barras",
			"pbrMetallicRoughness":{
				"baseColorFactor":[
					0.7873979806900024,
					0.7873979806900024,
					0.7873979806900024,
					1
				],
				"metallicFactor":0,
				"roughnessFactor":0.8239324688911438
			}
		},
		{
			"doubleSided":true,
			"name":"Discos.001",
			"pbrMetallicRoughness":{
				"baseColorFactor":[
					0.0025793800596147776,
					0.0025793800596147776,
					0.0025793800596147776,
					1
				],
				"metallicFactor":0,
				"roughnessFactor":0.9994232058525085
			}
		},
		{
			"doubleSided":true,
			"name":"Discos.002",
			"pbrMetallicRoughness":{
				"baseColorFactor":[
					0.0025793800596147776,
					0.0025793800596147776,
					0.0025793800596147776,
					1
				],
				"metallicFactor":0,
				"roughnessFactor":0.9994232058525085
			}
		},
		{
			"doubleSided":true,
			"name":"Caos",
			"pbrMetallicRoughness":{
				"baseColorFactor":[
					0.800000011920929,
					0.0008269650279544294,
					0,
					1
				],
				"metallicFactor":0,
				"roughnessFactor":0.9581941962242126
			}
		}
	],
	"meshes":[
		{
			"name":"BarraOlimpica_Barras_0",
			"primitives":[
				{
					"attributes":{
						"POSITION":0,
						"NORMAL":1,
						"TEXCOORD_0":2
					},
					"indices":3,
					"material":0
				},
				{
					"attributes":{
						"POSITION":4,
						"NORMAL":5,
						"TEXCOORD_0":6
					},
					"indices":7,
					"material":1
				},
				{
					"attributes":{
						"POSITION":8,
						"NORMAL":9,
						"TEXCOORD_0":10
					},
					"indices":11,
					"material":2
				},
				{
					"attributes":{
						"POSITION":12,
						"NORMAL":13,
						"TEXCOORD_0":14
					},
					"indices":15,
					"material":3
				}
			]
		}
	],
	"accessors":[
		{
			"bufferView":0,
			"componentType":5126,
			"count":710,
			"max":[
				4.786642551422119,
				5.697808265686035,
				0.6023799180984497
			],
			"min":[
				-3.1871719360351562,
				-3.3499677181243896,
				-0.710860013961792
			],
			"type":"VEC3"
		},
		{
			"bufferView":1,
			"componentType":5126,
			"count":710,
			"type":"VEC3"
		},
		{
			"bufferView":2,
			"componentType":5126,
			"count":710,
			"type":"VEC2"
		},
		{
			"bufferView":3,
			"componentType":5123,
			"count":2100,
			"type":"SCALAR"
		},
		{
			"bufferView":4,
			"componentType":5126,
			"count":2058,
			"max":[
				4.888118743896484,
				5.608100891113281,
				1.6219964027404785
			],
			"min":[
				-3.356755256652832,
				-3.3143908977508545,
				-1.7196354866027832
			],
			"type":"VEC3"
		},
		{
			"bufferView":5,
			"componentType":5126,
			"count":2058,
			"type":"VEC3"
		},
		{
			"bufferView":6,
			"componentType":5126,
			"count":2058,
			"type":"VEC2"
		},
		{
			"bufferView":7,
			"componentType":5123,
			"count":6528,
			"type":"SCALAR"
		},
		{
			"bufferView":8,
			"componentType":5126,
			"count":6168,
			"max":[
				1.0123788118362427,
				0.7815103530883789,
				0.6696724891662598
			],
			"min":[
				-1.3658431768417358,
				-1.4163414239883423,
				-0.6588201522827148
			],
			"type":"VEC3"
		},
		{
			"bufferView":9,
			"componentType":5126,
			"count":6168,
			"type":"VEC3"
		},
		{
			"bufferView":10,
			"componentType":5126,
			"count":6168,
			"type":"VEC2"
		},
		{
			"bufferView":11,
			"componentType":5123,
			"count":19584,
			"type":"SCALAR"
		},
		{
			"bufferView":12,
			"componentType":5126,
			"count":2714,
			"max":[
				0.9081835746765137,
				0.5479136109352112,
				0.26789963245391846
			],
			"min":[
				-1.2648125886917114,
				-1.1841939687728882,
				-0.23332253098487854
			],
			"type":"VEC3"
		},
		{
			"bufferView":13,
			"componentType":5126,
			"count":2714,
			"type":"VEC3"
		},
		{
			"bufferView":14,
			"componentType":5126,
			"count":2714,
			"type":"VEC2"
		},
		{
			"bufferView":15,
			"componentType":5123,
			"count":4008,
			"type":"SCALAR"
		}
	],
	"bufferViews":[
		{
			"buffer":0,
			"byteLength":8520,
			"byteOffset":0,
			"target":34962
		},
		{
			"buffer":0,
			"byteLength":8520,
			"byteOffset":8520,
			"target":34962
		},
		{
			"buffer":0,
			"byteLength":5680,
			"byteOffset":17040,
			"target":34962
		},
		{
			"buffer":0,
			"byteLength":4200,
			"byteOffset":22720,
			"target":34963
		},
		{
			"buffer":0,
			"byteLength":24696,
			"byteOffset":26920,
			"target":34962
		},
		{
			"buffer":0,
			"byteLength":24696,
			"byteOffset":51616,
			"target":34962
		},
		{
			"buffer":0,
			"byteLength":16464,
			"byteOffset":76312,
			"target":34962
		},
		{
			"buffer":0,
			"byteLength":13056,
			"byteOffset":92776,
			"target":34963
		},
		{
			"buffer":0,
			"byteLength":74016,
			"byteOffset":105832,
			"target":34962
		},
		{
			"buffer":0,
			"byteLength":74016,
			"byteOffset":179848,
			"target":34962
		},
		{
			"buffer":0,
			"byteLength":49344,
			"byteOffset":253864,
			"target":34962
		},
		{
			"buffer":0,
			"byteLength":39168,
			"byteOffset":303208,
			"target":34963
		},
		{
			"buffer":0,
			"byteLength":32568,
			"byteOffset":342376,
			"target":34962
		},
		{
			"buffer":0,
			"byteLength":32568,
			"byteOffset":374944,
			"target":34962
		},
		{
			"buffer":0,
			"byteLength":21712,
			"byteOffset":407512,
			"target":34962
		},
		{
			"buffer":0,
			"byteLength":8016,
			"byteOffset":429224,
			"target":34963
		}
	],
	"buffers":[
		{
			"byteLength":437240,
			"uri":"data:application/octet-stream;base64,"
		}
	]
}
