{
	"asset":{
		"generator":"Khronos glTF Blender I/O v3.6.28",
		"version":"2.0"
	},
	"scene":0,
	"scenes":[
		{
			"name":"Scene",
			"nodes":[
				0
			]
		}
	],
	"nodes":[
		{
			"mesh":0,
			"name":"Object_4"
		}
	],
	"materials":[
		{
			"doubleSided":true,
			"name":"subwoofer_eng",
			"normalTexture":{
				"index":0
			},
			"pbrMetallicRoughness":{
				"baseColorTexture":{
					"index":1
				},
				"metallicRoughnessTexture":{
					"index":2
				}
			}
		}
	],
	"meshes":[
		{
			"name":"Object_2",
			"primitives":[
				{
					"attributes":{
						"POSITION":0,
						"NORMAL":1,
						"TEXCOORD_0":2
					},
					"indices":3,
					"material":0
				}
			]
		}
	],
	"textures":[
		{
			"sampler":0,
			"source":0
		},
		{
			"sampler":0,
			"source":1
		},
		{
			"sampler":0,
			"source":2
		}
	],
	"images":[
		{
			"bufferView":4,
			"mimeType":"image/png",
			"name":"Image_2"
		},
		{
			"bufferView":5,
			"mimeType":"image/png",
			"name":"Image_0"
		},
		{
			"bufferView":6,
			"mimeType":"image/png",
			"name":"Image_1"
		}
	],
	"accessors":[
		{
			"bufferView":0,
			"componentType":5126,
			"count":10101,
			"max":[
				1.5602631568908691,
				2.8845784664154053,
				1.1484788656234741
			],
			"min":[
				-1.5602631568908691,
				-1.0579330921173096,
				-1.2482233047485352
			],
			"type":"VEC3"
		},
		{
			"bufferView":1,
			"componentType":5126,
			"count":10101,
			"type":"VEC3"
		},
		{
			"bufferView":2,
			"componentType":5126,
			"count":10101,
			"type":"VEC2"
		},
		{
			"bufferView":3,
			"componentType":5123,
			"count":39606,
			"type":"SCALAR"
		}
	],
	"bufferViews":[
		{
			"buffer":0,
			"byteLength":121212,
			"byteOffset":0,
			"target":34962
		},
		{
			"buffer":0,
			"byteLength":121212,
			"byteOffset":121212,
			"target":34962
		},
		{
			"buffer":0,
			"byteLength":80808,
			"byteOffset":242424,
			"target":34962
		},
		{
			"buffer":0,
			"byteLength":79212,
			"byteOffset":323232,
			"target":34963
		},
		{
			"buffer":0,
			"byteLength":635123,
			"byteOffset":402444
		},
		{
			"buffer":0,
			"byteLength":701711,
			"byteOffset":1037568
		},
		{
			"buffer":0,
			"byteLength":494313,
			"byteOffset":1739280
		}
	],
	"samplers":[
		{
			"magFilter":9729,
			"minFilter":9987
		}
	],
	"buffers":[
		{
			"byteLength":2233596,
			"uri":"data:application/octet-stream;base64,"
		}
	]
}
