{
	"asset":{
		"generator":"Khronos glTF Blender I/O v3.6.28",
		"version":"2.0"
	},
	"scene":0,
	"scenes":[
		{
			"name":"Scene",
			"nodes":[
				0
			]
		}
	],
	"nodes":[
		{
			"mesh":0,
			"name":"defaultMaterial.007"
		}
	],
	"materials":[
		{
			"doubleSided":true,
			"name":"metal_plata",
			"normalTexture":{
				"index":0
			},
			"pbrMetallicRoughness":{
				"baseColorTexture":{
					"index":1
				},
				"metallicRoughnessTexture":{
					"index":2
				}
			}
		},
		{
			"doubleSided":true,
			"name":"detalle_metal",
			"normalTexture":{
				"index":3
			},
			"pbrMetallicRoughness":{
				"baseColorTexture":{
					"index":4
				},
				"metallicRoughnessTexture":{
					"index":5
				}
			}
		},
		{
			"doubleSided":true,
			"name":"swich",
			"normalTexture":{
				"index":6
			},
			"pbrMetallicRoughness":{
				"baseColorTexture":{
					"index":7
				},
				"metallicRoughnessTexture":{
					"index":8
				}
			}
		},
		{
			"doubleSided":true,
			"name":"conector",
			"normalTexture":{
				"index":9
			},
			"pbrMetallicRoughness":{
				"baseColorTexture":{
					"index":10
				},
				"metallicRoughnessTexture":{
					"index":11
				}
			}
		},
		{
			"doubleSided":true,
			"name":"bombillo",
			"normalTexture":{
				"index":12
			},
			"pbrMetallicRoughness":{
				"baseColorTexture":{
					"index":13
				},
				"metallicRoughnessTexture":{
					"index":14
				}
			}
		},
		{
			"doubleSided":true,
			"name":"base_interior",
			"normalTexture":{
				"index":15
			},
			"pbrMetallicRoughness":{
				"baseColorTexture":{
					"index":16
				},
				"metallicRoughnessTexture":{
					"index":17
				}
			}
		},
		{
			"doubleSided":true,
			"name":"plafon",
			"normalTexture":{
				"index":18
			},
			"pbrMetallicRoughness":{
				"baseColorTexture":{
					"index":19
				},
				"metallicRoughnessTexture":{
					"index":20
				}
			}
		},
		{
			"doubleSided":true,
			"name":"tornillos",
			"normalTexture":{
				"index":21
			},
			"pbrMetallicRoughness":{
				"baseColorTexture":{
					"index":22
				},
				"metallicRoughnessTexture":{
					"index":23
				}
			}
		},
		{
			"alphaMode":"BLEND",
			"doubleSided":true,
			"name":"puntos_negros",
			"normalTexture":{
				"index":24
			},
			"occlusionTexture":{
				"index":25
			},
			"pbrMetallicRoughness":{
				"baseColorTexture":{
					"index":26
				},
				"metallicRoughnessTexture":{
					"index":25
				}
			}
		},
		{
			"doubleSided":true,
			"name":"signo_encender",
			"normalTexture":{
				"index":27
			},
			"pbrMetallicRoughness":{
				"baseColorTexture":{
					"index":28
				},
				"metallicRoughnessTexture":{
					"index":29
				}
			}
		},
		{
			"doubleSided":true,
			"name":"interior_negro",
			"normalTexture":{
				"index":30
			},
			"pbrMetallicRoughness":{
				"baseColorTexture":{
					"index":31
				},
				"metallicRoughnessTexture":{
					"index":32
				}
			}
		}
	],
	"meshes":[
		{
			"name":"defaultMaterial.007",
			"primitives":[
				{
					"attributes":{
						"POSITION":0,
						"NORMAL":1,
						"TEXCOORD_0":2
					},
					"indices":3,
					"material":0
				},
				{
					"attributes":{
						"POSITION":4,
						"NORMAL":5,
						"TEXCOORD_0":6
					},
					"indices":7,
					"material":1
				},
				{
					"attributes":{
						"POSITION":8,
						"NORMAL":9,
						"TEXCOORD_0":10
					},
					"indices":11,
					"material":2
				},
				{
					"attributes":{
						"POSITION":12,
						"NORMAL":13,
						"TEXCOORD_0":14
					},
					"indices":15,
					"material":3
				},
				{
					"attributes":{
						"POSITION":16,
						"NORMAL":17,
						"TEXCOORD_0":18
					},
					"indices":19,
					"material":4
				},
				{
					"attributes":{
						"POSITION":20,
						"NORMAL":21,
						"TEXCOORD_0":22
					},
					"indices":23,
					"material":5
				},
				{
					"attributes":{
						"POSITION":24,
						"NORMAL":25,
						"TEXCOORD_0":26
					},
					"indices":27,
					"material":6
				},
				{
					"attributes":{
						"POSITION":28,
						"NORMAL":29,
						"TEXCOORD_0":30
					},
					"indices":31,
					"material":7
				},
				{
					"attributes":{
						"POSITION":32,
						"NORMAL":33,
						"TEXCOORD_0":34
					},
					"indices":35,
					"material":8
				},
				{
					"attributes":{
						"POSITION":36,
						"NORMAL":37,
						"TEXCOORD_0":38
					},
					"indices":39,
					"material":9
				},
				{
					"attributes":{
						"POSITION":40,
						"NORMAL":41,
						"TEXCOORD_0":42
					},
					"indices":43,
					"material":10
				}
			]
		}
	],
	"textures":[
		{
			"sampler":0,
			"source":0
		},
		{
			"sampler":0,
			"source":1
		},
		{
			"sampler":0,
			"source":2
		},
		{
			"sampler":0,
			"source":3
		},
		{
			"sampler":0,
			"source":4
		},
		{
			"sampler":0,
			"source":5
		},
		{
			"sampler":0,
			"source":6
		},
		{
			"sampler":0,
			"source":7
		},
		{
			"sampler":0,
			"source":8
		},
		{
			"sampler":0,
			"source":9
		},
		{
			"sampler":0,
			"source":10
		},
		{
			"sampler":0,
			"source":11
		},
		{
			"sampler":0,
			"source":12
		},
		{
			"sampler":0,
			"source":13
		},
		{
			"sampler":0,
			"source":14
		},
		{
			"sampler":0,
			"source":15
		},
		{
			"sampler":0,
			"source":16
		},
		{
			"sampler":0,
			"source":17
		},
		{
			"sampler":0,
			"source":18
		},
		{
			"sampler":0,
			"source":19
		},
		{
			"sampler":0,
			"source":20
		},
		{
			"sampler":0,
			"source":21
		},
		{
			"sampler":0,
			"source":22
		},
		{
			"sampler":0,
			"source":23
		},
		{
			"sampler":0,
			"source":24
		},
		{
			"sampler":0,
			"source":25
		},
		{
			"sampler":0,
			"source":26
		},
		{
			"sampler":0,
			"source":27
		},
		{
			"sampler":0,
			"source":28
		},
		{
			"sampler":0,
			"source":29
		},
		{
			"sampler":0,
			"source":30
		},
		{
			"sampler":0,
			"source":31
		},
		{
			"sampler":0,
			"source":32
		}
	],
	"images":[
		{
			"bufferView":4,
			"mimeType":"image/png",
			"name":"Image_11"
		},
		{
			"bufferView":5,
			"mimeType":"image/jpeg",
			"name":"Image_9"
		},
		{
			"bufferView":6,
			"mimeType":"image/png",
			"name":"Image_10"
		},
		{
			"bufferView":11,
			"mimeType":"image/png",
			"name":"Image_32"
		},
		{
			"bufferView":12,
			"mimeType":"image/jpeg",
			"name":"Image_30"
		},
		{
			"bufferView":13,
			"mimeType":"image/png",
			"name":"Image_31"
		},
		{
			"bufferView":18,
			"mimeType":"image/png",
			"name":"Image_29"
		},
		{
			"bufferView":19,
			"mimeType":"image/jpeg",
			"name":"Image_27"
		},
		{
			"bufferView":20,
			"mimeType":"image/png",
			"name":"Image_28"
		},
		{
			"bufferView":25,
			"mimeType":"image/png",
			"name":"Image_26"
		},
		{
			"bufferView":26,
			"mimeType":"image/jpeg",
			"name":"Image_24"
		},
		{
			"bufferView":27,
			"mimeType":"image/png",
			"name":"Image_25"
		},
		{
			"bufferView":32,
			"mimeType":"image/png",
			"name":"Image_23"
		},
		{
			"bufferView":33,
			"mimeType":"image/jpeg",
			"name":"Image_21"
		},
		{
			"bufferView":34,
			"mimeType":"image/png",
			"name":"Image_22"
		},
		{
			"bufferView":39,
			"mimeType":"image/png",
			"name":"Image_20"
		},
		{
			"bufferView":40,
			"mimeType":"image/jpeg",
			"name":"Image_18"
		},
		{
			"bufferView":41,
			"mimeType":"image/png",
			"name":"Image_19"
		},
		{
			"bufferView":46,
			"mimeType":"image/png",
			"name":"Image_17"
		},
		{
			"bufferView":47,
			"mimeType":"image/jpeg",
			"name":"Image_15"
		},
		{
			"bufferView":48,
			"mimeType":"image/png",
			"name":"Image_16"
		},
		{
			"bufferView":53,
			"mimeType":"image/png",
			"name":"Image_14"
		},
		{
			"bufferView":54,
			"mimeType":"image/jpeg",
			"name":"Image_12"
		},
		{
			"bufferView":55,
			"mimeType":"image/png",
			"name":"Image_13"
		},
		{
			"bufferView":60,
			"mimeType":"image/png",
			"name":"Image_8"
		},
		{
			"bufferView":61,
			"mimeType":"image/png",
			"name":"Image_7"
		},
		{
			"bufferView":62,
			"mimeType":"image/png",
			"name":"Image_6"
		},
		{
			"bufferView":67,
			"mimeType":"image/png",
			"name":"Image_5"
		},
		{
			"bufferView":68,
			"mimeType":"image/jpeg",
			"name":"Image_3"
		},
		{
			"bufferView":69,
			"mimeType":"image/png",
			"name":"Image_4"
		},
		{
			"bufferView":74,
			"mimeType":"image/png",
			"name":"Image_2"
		},
		{
			"bufferView":75,
			"mimeType":"image/jpeg",
			"name":"Image_0"
		},
		{
			"bufferView":76,
			"mimeType":"image/png",
			"name":"Image_1"
		}
	],
	"accessors":[
		{
			"bufferView":0,
			"componentType":5126,
			"count":3524,
			"max":[
				1.017897129058838,
				2.834822177886963,
				1.6625218391418457
			],
			"min":[
				-0.8245935440063477,
				-1.4571864604949951,
				-1.1902356147766113
			],
			"type":"VEC3"
		},
		{
			"bufferView":1,
			"componentType":5126,
			"count":3524,
			"type":"VEC3"
		},
		{
			"bufferView":2,
			"componentType":5126,
			"count":3524,
			"type":"VEC2"
		},
		{
			"bufferView":3,
			"componentType":5123,
			"count":12060,
			"type":"SCALAR"
		},
		{
			"bufferView":7,
			"componentType":5126,
			"count":164,
			"max":[
				0.6197950839996338,
				3.0201900005340576,
				0.806614100933075
			],
			"min":[
				-0.33338454365730286,
				2.469041347503662,
				-0.13823825120925903
			],
			"type":"VEC3"
		},
		{
			"bufferView":8,
			"componentType":5126,
			"count":164,
			"type":"VEC3"
		},
		{
			"bufferView":9,
			"componentType":5126,
			"count":164,
			"type":"VEC2"
		},
		{
			"bufferView":10,
			"componentType":5123,
			"count":600,
			"type":"SCALAR"
		},
		{
			"bufferView":14,
			"componentType":5126,
			"count":196,
			"max":[
				0.20590952038764954,
				-1.1678436994552612,
				0.23720070719718933
			],
			"min":[
				0.00800234079360962,
				-1.2437546253204346,
				0.019309861585497856
			],
			"type":"VEC3"
		},
		{
			"bufferView":15,
			"componentType":5126,
			"count":196,
			"type":"VEC3"
		},
		{
			"bufferView":16,
			"componentType":5126,
			"count":196,
			"type":"VEC2"
		},
		{
			"bufferView":17,
			"componentType":5123,
			"count":1008,
			"type":"SCALAR"
		},
		{
			"bufferView":21,
			"componentType":5126,
			"count":84,
			"max":[
				0.2799065411090851,
				2.3364739418029785,
				0.6978744864463806
			],
			"min":[
				0.08990395069122314,
				2.024505615234375,
				0.43527451157569885
			],
			"type":"VEC3"
		},
		{
			"bufferView":22,
			"componentType":5126,
			"count":84,
			"type":"VEC3"
		},
		{
			"bufferView":23,
			"componentType":5126,
			"count":84,
			"type":"VEC2"
		},
		{
			"bufferView":24,
			"componentType":5123,
			"count":360,
			"type":"SCALAR"
		},
		{
			"bufferView":28,
			"componentType":5126,
			"count":357,
			"max":[
				0.3948359787464142,
				2.1396260261535645,
				0.9681726098060608
			],
			"min":[
				0.03750726580619812,
				1.4019391536712646,
				0.5282861590385437
			],
			"type":"VEC3"
		},
		{
			"bufferView":29,
			"componentType":5126,
			"count":357,
			"type":"VEC3"
		},
		{
			"bufferView":30,
			"componentType":5126,
			"count":357,
			"type":"VEC2"
		},
		{
			"bufferView":31,
			"componentType":5123,
			"count":1860,
			"type":"SCALAR"
		},
		{
			"bufferView":35,
			"componentType":5126,
			"count":147,
			"max":[
				0.9914427995681763,
				2.5795176029205322,
				1.6306467056274414
			],
			"min":[
				-0.4941129982471466,
				0.9781833291053772,
				0.07586995512247086
			],
			"type":"VEC3"
		},
		{
			"bufferView":36,
			"componentType":5126,
			"count":147,
			"type":"VEC3"
		},
		{
			"bufferView":37,
			"componentType":5126,
			"count":147,
			"type":"VEC2"
		},
		{
			"bufferView":38,
			"componentType":5123,
			"count":720,
			"type":"SCALAR"
		},
		{
			"bufferView":42,
			"componentType":5126,
			"count":161,
			"max":[
				0.604731559753418,
				2.5950281620025635,
				0.8840013146400452
			],
			"min":[
				-0.2696395814418793,
				2.1229381561279297,
				0.06843063235282898
			],
			"type":"VEC3"
		},
		{
			"bufferView":43,
			"componentType":5126,
			"count":161,
			"type":"VEC3"
		},
		{
			"bufferView":44,
			"componentType":5126,
			"count":161,
			"type":"VEC2"
		},
		{
			"bufferView":45,
			"componentType":5123,
			"count":900,
			"type":"SCALAR"
		},
		{
			"bufferView":49,
			"componentType":5126,
			"count":292,
			"max":[
				0.11135426163673401,
				2.724865436553955,
				-0.02137565240263939
			],
			"min":[
				0.024803727865219116,
				2.3723816871643066,
				-0.1796347200870514
			],
			"type":"VEC3"
		},
		{
			"bufferView":50,
			"componentType":5126,
			"count":292,
			"type":"VEC3"
		},
		{
			"bufferView":51,
			"componentType":5126,
			"count":292,
			"type":"VEC2"
		},
		{
			"bufferView":52,
			"componentType":5123,
			"count":1320,
			"type":"SCALAR"
		},
		{
			"bufferView":56,
			"componentType":5126,
			"count":100,
			"max":[
				0.5943577289581299,
				3.3383731842041016,
				0.7460516691207886
			],
			"min":[
				-0.32773467898368835,
				2.5838875770568848,
				-0.20296107232570648
			],
			"type":"VEC3"
		},
		{
			"bufferView":57,
			"componentType":5126,
			"count":100,
			"type":"VEC3"
		},
		{
			"bufferView":58,
			"componentType":5126,
			"count":100,
			"type":"VEC2"
		},
		{
			"bufferView":59,
			"componentType":5123,
			"count":534,
			"type":"SCALAR"
		},
		{
			"bufferView":63,
			"componentType":5126,
			"count":96,
			"max":[
				0.12884125113487244,
				-1.1728564500808716,
				0.19817280769348145
			],
			"min":[
				0.08043763041496277,
				-1.2050819396972656,
				0.09035883098840714
			],
			"type":"VEC3"
		},
		{
			"bufferView":64,
			"componentType":5126,
			"count":96,
			"type":"VEC3"
		},
		{
			"bufferView":65,
			"componentType":5126,
			"count":96,
			"type":"VEC2"
		},
		{
			"bufferView":66,
			"componentType":5123,
			"count":390,
			"type":"SCALAR"
		},
		{
			"bufferView":70,
			"componentType":5126,
			"count":230,
			"max":[
				0.5716668367385864,
				3.1699893474578857,
				0.708289384841919
			],
			"min":[
				-0.296169638633728,
				2.645667791366577,
				-0.1220073476433754
			],
			"type":"VEC3"
		},
		{
			"bufferView":71,
			"componentType":5126,
			"count":230,
			"type":"VEC3"
		},
		{
			"bufferView":72,
			"componentType":5126,
			"count":230,
			"type":"VEC2"
		},
		{
			"bufferView":73,
			"componentType":5123,
			"count":1140,
			"type":"SCALAR"
		}
	],
	"bufferViews":[
		{
			"buffer":0,
			"byteLength":42288,
			"byteOffset":0,
			"target":34962
		},
		{
			"buffer":0,
			"byteLength":42288,
			"byteOffset":42288,
			"target":34962
		},
		{
			"buffer":0,
			"byteLength":28192,
			"byteOffset":84576,
			"target":34962
		},
		{
			"buffer":0,
			"byteLength":24120,
			"byteOffset":112768,
			"target":34963
		},
		{
			"buffer":0,
			"byteLength":545,
			"byteOffset":136888
		},
		{
			"buffer":0,
			"byteLength":12574,
			"byteOffset":137436
		},
		{
			"buffer":0,
			"byteLength":222,
			"byteOffset":150012
		},
		{
			"buffer":0,
			"byteLength":1968,
			"byteOffset":150236,
			"target":34962
		},
		{
			"buffer":0,
			"byteLength":1968,
			"byteOffset":152204,
			"target":34962
		},
		{
			"buffer":0,
			"byteLength":1312,
			"byteOffset":154172,
			"target":34962
		},
		{
			"buffer":0,
			"byteLength":1200,
			"byteOffset":155484,
			"target":34963
		},
		{
			"buffer":0,
			"byteLength":504,
			"byteOffset":156684
		},
		{
			"buffer":0,
			"byteLength":12575,
			"byteOffset":157188
		},
		{
			"buffer":0,
			"byteLength":222,
			"byteOffset":169764
		},
		{
			"buffer":0,
			"byteLength":2352,
			"byteOffset":169988,
			"target":34962
		},
		{
			"buffer":0,
			"byteLength":2352,
			"byteOffset":172340,
			"target":34962
		},
		{
			"buffer":0,
			"byteLength":1568,
			"byteOffset":174692,
			"target":34962
		},
		{
			"buffer":0,
			"byteLength":2016,
			"byteOffset":176260,
			"target":34963
		},
		{
			"buffer":0,
			"byteLength":539,
			"byteOffset":178276
		},
		{
			"buffer":0,
			"byteLength":12572,
			"byteOffset":178816
		},
		{
			"buffer":0,
			"byteLength":222,
			"byteOffset":191388
		},
		{
			"buffer":0,
			"byteLength":1008,
			"byteOffset":191612,
			"target":34962
		},
		{
			"buffer":0,
			"byteLength":1008,
			"byteOffset":192620,
			"target":34962
		},
		{
			"buffer":0,
			"byteLength":672,
			"byteOffset":193628,
			"target":34962
		},
		{
			"buffer":0,
			"byteLength":720,
			"byteOffset":194300,
			"target":34963
		},
		{
			"buffer":0,
			"byteLength":489,
			"byteOffset":195020
		},
		{
			"buffer":0,
			"byteLength":12576,
			"byteOffset":195512
		},
		{
			"buffer":0,
			"byteLength":222,
			"byteOffset":208088
		},
		{
			"buffer":0,
			"byteLength":4284,
			"byteOffset":208312,
			"target":34962
		},
		{
			"buffer":0,
			"byteLength":4284,
			"byteOffset":212596,
			"target":34962
		},
		{
			"buffer":0,
			"byteLength":2856,
			"byteOffset":216880,
			"target":34962
		},
		{
			"buffer":0,
			"byteLength":3720,
			"byteOffset":219736,
			"target":34963
		},
		{
			"buffer":0,
			"byteLength":513,
			"byteOffset":223456
		},
		{
			"buffer":0,
			"byteLength":12572,
			"byteOffset":223972
		},
		{
			"buffer":0,
			"byteLength":222,
			"byteOffset":236544
		},
		{
			"buffer":0,
			"byteLength":1764,
			"byteOffset":236768,
			"target":34962
		},
		{
			"buffer":0,
			"byteLength":1764,
			"byteOffset":238532,
			"target":34962
		},
		{
			"buffer":0,
			"byteLength":1176,
			"byteOffset":240296,
			"target":34962
		},
		{
			"buffer":0,
			"byteLength":1440,
			"byteOffset":241472,
			"target":34963
		},
		{
			"buffer":0,
			"byteLength":478,
			"byteOffset":242912
		},
		{
			"buffer":0,
			"byteLength":12572,
			"byteOffset":243392
		},
		{
			"buffer":0,
			"byteLength":222,
			"byteOffset":255964
		},
		{
			"buffer":0,
			"byteLength":1932,
			"byteOffset":256188,
			"target":34962
		},
		{
			"buffer":0,
			"byteLength":1932,
			"byteOffset":258120,
			"target":34962
		},
		{
			"buffer":0,
			"byteLength":1288,
			"byteOffset":260052,
			"target":34962
		},
		{
			"buffer":0,
			"byteLength":1800,
			"byteOffset":261340,
			"target":34963
		},
		{
			"buffer":0,
			"byteLength":487,
			"byteOffset":263140
		},
		{
			"buffer":0,
			"byteLength":12572,
			"byteOffset":263628
		},
		{
			"buffer":0,
			"byteLength":222,
			"byteOffset":276200
		},
		{
			"buffer":0,
			"byteLength":3504,
			"byteOffset":276424,
			"target":34962
		},
		{
			"buffer":0,
			"byteLength":3504,
			"byteOffset":279928,
			"target":34962
		},
		{
			"buffer":0,
			"byteLength":2336,
			"byteOffset":283432,
			"target":34962
		},
		{
			"buffer":0,
			"byteLength":2640,
			"byteOffset":285768,
			"target":34963
		},
		{
			"buffer":0,
			"byteLength":501,
			"byteOffset":288408
		},
		{
			"buffer":0,
			"byteLength":12575,
			"byteOffset":288912
		},
		{
			"buffer":0,
			"byteLength":222,
			"byteOffset":301488
		},
		{
			"buffer":0,
			"byteLength":1200,
			"byteOffset":301712,
			"target":34962
		},
		{
			"buffer":0,
			"byteLength":1200,
			"byteOffset":302912,
			"target":34962
		},
		{
			"buffer":0,
			"byteLength":800,
			"byteOffset":304112,
			"target":34962
		},
		{
			"buffer":0,
			"byteLength":1068,
			"byteOffset":304912,
			"target":34963
		},
		{
			"buffer":0,
			"byteLength":2164,
			"byteOffset":305980
		},
		{
			"buffer":0,
			"byteLength":18267,
			"byteOffset":308144
		},
		{
			"buffer":0,
			"byteLength":4920,
			"byteOffset":326412
		},
		{
			"buffer":0,
			"byteLength":1152,
			"byteOffset":331332,
			"target":34962
		},
		{
			"buffer":0,
			"byteLength":1152,
			"byteOffset":332484,
			"target":34962
		},
		{
			"buffer":0,
			"byteLength":768,
			"byteOffset":333636,
			"target":34962
		},
		{
			"buffer":0,
			"byteLength":780,
			"byteOffset":334404,
			"target":34963
		},
		{
			"buffer":0,
			"byteLength":533,
			"byteOffset":335184
		},
		{
			"buffer":0,
			"byteLength":12572,
			"byteOffset":335720
		},
		{
			"buffer":0,
			"byteLength":222,
			"byteOffset":348292
		},
		{
			"buffer":0,
			"byteLength":2760,
			"byteOffset":348516,
			"target":34962
		},
		{
			"buffer":0,
			"byteLength":2760,
			"byteOffset":351276,
			"target":34962
		},
		{
			"buffer":0,
			"byteLength":1840,
			"byteOffset":354036,
			"target":34962
		},
		{
			"buffer":0,
			"byteLength":2280,
			"byteOffset":355876,
			"target":34963
		},
		{
			"buffer":0,
			"byteLength":479,
			"byteOffset":358156
		},
		{
			"buffer":0,
			"byteLength":12572,
			"byteOffset":358636
		},
		{
			"buffer":0,
			"byteLength":222,
			"byteOffset":371208
		}
	],
	"samplers":[
		{
			"magFilter":9729,
			"minFilter":9987
		}
	],
	"buffers":[
		{
			"byteLength":371432,
			"uri":"data:application/octet-stream;base64,"
		}
	]
}
