{
	"asset":{
		"generator":"Khronos glTF Blender I/O v3.6.28",
		"version":"2.0"
	},
	"scene":0,
	"scenes":[
		{
			"name":"Scene",
			"nodes":[
				0
			]
		}
	],
	"nodes":[
		{
			"mesh":0,
			"name":"lechuga"
		}
	],
	"materials":[
		{
			"alphaCutoff":0.0949999988079071,
			"alphaMode":"MASK",
			"doubleSided":true,
			"name":"Material.002",
			"pbrMetallicRoughness":{
				"baseColorTexture":{
					"index":0
				},
				"metallicFactor":0,
				"roughnessFactor":0.5636363625526428
			}
		}
	],
	"meshes":[
		{
			"name":"Marul_Material_0",
			"primitives":[
				{
					"attributes":{
						"POSITION":0,
						"NORMAL":1,
						"TEXCOORD_0":2
					},
					"indices":3,
					"material":0
				}
			]
		}
	],
	"textures":[
		{
			"sampler":0,
			"source":0
		}
	],
	"images":[
		{
			"bufferView":4,
			"mimeType":"image/png",
			"name":"Image_0"
		}
	],
	"accessors":[
		{
			"bufferView":0,
			"componentType":5126,
			"count":739,
			"max":[
				3.933210611343384,
				3.9944450855255127,
				4.328397750854492
			],
			"min":[
				-1.8136440515518188,
				-1.3633249998092651,
				-1.4889955520629883
			],
			"type":"VEC3"
		},
		{
			"bufferView":1,
			"componentType":5126,
			"count":739,
			"type":"VEC3"
		},
		{
			"bufferView":2,
			"componentType":5126,
			"count":739,
			"type":"VEC2"
		},
		{
			"bufferView":3,
			"componentType":5123,
			"count":1428,
			"type":"SCALAR"
		}
	],
	"bufferViews":[
		{
			"buffer":0,
			"byteLength":8868,
			"byteOffset":0,
			"target":34962
		},
		{
			"buffer":0,
			"byteLength":8868,
			"byteOffset":8868,
			"target":34962
		},
		{
			"buffer":0,
			"byteLength":5912,
			"byteOffset":17736,
			"target":34962
		},
		{
			"buffer":0,
			"byteLength":2856,
			"byteOffset":23648,
			"target":34963
		},
		{
			"buffer":0,
			"byteLength":53666,
			"byteOffset":26504
		}
	],
	"samplers":[
		{
			"magFilter":9729,
			"minFilter":9987
		}
	],
	"buffers":[
		{
			"byteLength":80172,
			"uri":"data:application/octet-stream;base64,"
		}
	]
}
