{
	"asset":{
		"generator":"Khronos glTF Blender I/O v3.6.28",
		"version":"2.0"
	},
	"scene":0,
	"scenes":[
		{
			"name":"Scene",
			"nodes":[
				0
			]
		}
	],
	"nodes":[
		{
			"mesh":0,
			"name":"Cylinder001__0"
		}
	],
	"materials":[
		{
			"doubleSided":true,
			"name":"Scene_-_Root",
			"pbrMetallicRoughness":{
				"baseColorTexture":{
					"index":0
				},
				"metallicFactor":0.9590908885002136,
				"roughnessFactor":0.331818163394928
			}
		},
		{
			"doubleSided":true,
			"name":"Teflon",
			"pbrMetallicRoughness":{
				"baseColorTexture":{
					"index":1
				},
				"roughnessFactor":0.5
			}
		}
	],
	"meshes":[
		{
			"name":"Cylinder001__0",
			"primitives":[
				{
					"attributes":{
						"POSITION":0,
						"NORMAL":1,
						"TEXCOORD_0":2
					},
					"indices":3,
					"material":0
				},
				{
					"attributes":{
						"POSITION":4,
						"NORMAL":5,
						"TEXCOORD_0":6
					},
					"indices":7,
					"material":1
				}
			]
		}
	],
	"textures":[
		{
			"sampler":0,
			"source":0
		},
		{
			"sampler":0,
			"source":1
		}
	],
	"images":[
		{
			"bufferView":4,
			"mimeType":"image/png",
			"name":"Image_0"
		},
		{
			"bufferView":9,
			"mimeType":"image/jpeg",
			"name":"Image_0"
		}
	],
	"accessors":[
		{
			"bufferView":0,
			"componentType":5126,
			"count":468,
			"max":[
				1.6104722023010254,
				0.1779012680053711,
				2.249279499053955
			],
			"min":[
				-1.7120659351348877,
				-2.7881197929382324,
				-1.4255101680755615
			],
			"type":"VEC3"
		},
		{
			"bufferView":1,
			"componentType":5126,
			"count":468,
			"type":"VEC3"
		},
		{
			"bufferView":2,
			"componentType":5126,
			"count":468,
			"type":"VEC2"
		},
		{
			"bufferView":3,
			"componentType":5123,
			"count":1356,
			"type":"SCALAR"
		},
		{
			"bufferView":5,
			"componentType":5126,
			"count":1851,
			"max":[
				2.5296037197113037,
				3.158459424972534,
				2.1341195106506348
			],
			"min":[
				-2.4354355335235596,
				-0.10258543491363525,
				-0.8735644221305847
			],
			"type":"VEC3"
		},
		{
			"bufferView":6,
			"componentType":5126,
			"count":1851,
			"type":"VEC3"
		},
		{
			"bufferView":7,
			"componentType":5126,
			"count":1851,
			"type":"VEC2"
		},
		{
			"bufferView":8,
			"componentType":5123,
			"count":9384,
			"type":"SCALAR"
		}
	],
	"bufferViews":[
		{
			"buffer":0,
			"byteLength":5616,
			"byteOffset":0,
			"target":34962
		},
		{
			"buffer":0,
			"byteLength":5616,
			"byteOffset":5616,
			"target":34962
		},
		{
			"buffer":0,
			"byteLength":3744,
			"byteOffset":11232,
			"target":34962
		},
		{
			"buffer":0,
			"byteLength":2712,
			"byteOffset":14976,
			"target":34963
		},
		{
			"buffer":0,
			"byteLength":774068,
			"byteOffset":17688
		},
		{
			"buffer":0,
			"byteLength":22212,
			"byteOffset":791756,
			"target":34962
		},
		{
			"buffer":0,
			"byteLength":22212,
			"byteOffset":813968,
			"target":34962
		},
		{
			"buffer":0,
			"byteLength":14808,
			"byteOffset":836180,
			"target":34962
		},
		{
			"buffer":0,
			"byteLength":18768,
			"byteOffset":850988,
			"target":34963
		},
		{
			"buffer":0,
			"byteLength":275405,
			"byteOffset":869756
		}
	],
	"samplers":[
		{
			"magFilter":9729,
			"minFilter":9987
		}
	],
	"buffers":[
		{
			"byteLength":1145164,
			"uri":"data:application/octet-stream;base64,"
		}
	]
}
