{
	"asset":{
		"generator":"Khronos glTF Blender I/O v3.6.28",
		"version":"2.0"
	},
	"scene":0,
	"scenes":[
		{
			"name":"Scene",
			"nodes":[
				0
			]
		}
	],
	"nodes":[
		{
			"mesh":0,
			"name":"Object_2"
		}
	],
	"materials":[
		{
			"alphaMode":"BLEND",
			"doubleSided":true,
			"name":"Mat_3",
			"pbrMetallicRoughness":{
				"baseColorFactor":[
					0.5830404758453369,
					0.5830404758453369,
					0.5830404758453369,
					1
				],
				"metallicFactor":0.6590908765792847,
				"roughnessFactor":0.19025875627994537
			}
		}
	],
	"meshes":[
		{
			"name":"Object_0.001",
			"primitives":[
				{
					"attributes":{
						"POSITION":0,
						"NORMAL":1,
						"TEXCOORD_0":2
					},
					"indices":3,
					"material":0
				}
			]
		}
	],
	"accessors":[
		{
			"bufferView":0,
			"componentType":5126,
			"count":1554,
			"max":[
				2.359980344772339,
				3.743377208709717,
				2.5549278259277344
			],
			"min":[
				-2.3892171382904053,
				-1.2623770236968994,
				-2.5722527503967285
			],
			"type":"VEC3"
		},
		{
			"bufferView":1,
			"componentType":5126,
			"count":1554,
			"type":"VEC3"
		},
		{
			"bufferView":2,
			"componentType":5126,
			"count":1554,
			"type":"VEC2"
		},
		{
			"bufferView":3,
			"componentType":5123,
			"count":4680,
			"type":"SCALAR"
		}
	],
	"bufferViews":[
		{
			"buffer":0,
			"byteLength":18648,
			"byteOffset":0,
			"target":34962
		},
		{
			"buffer":0,
			"byteLength":18648,
			"byteOffset":18648,
			"target":34962
		},
		{
			"buffer":0,
			"byteLength":12432,
			"byteOffset":37296,
			"target":34962
		},
		{
			"buffer":0,
			"byteLength":9360,
			"byteOffset":49728,
			"target":34963
		}
	],
	"buffers":[
		{
			"byteLength":59088,
			"uri":"data:application/octet-stream;base64,"
		}
	]
}
