{
	"asset":{
		"generator":"Khronos glTF Blender I/O v3.6.28",
		"version":"2.0"
	},
	"scene":0,
	"scenes":[
		{
			"name":"Scene",
			"nodes":[
				0
			]
		}
	],
	"nodes":[
		{
			"mesh":0,
			"name":"Object_2.001",
			"rotation":[
				-0.70710688829422,
				0,
				0,
				0.7071066498756409
			]
		}
	],
	"materials":[
		{
			"doubleSided":true,
			"name":"Pear",
			"pbrMetallicRoughness":{
				"baseColorTexture":{
					"index":0
				},
				"metallicFactor":0,
				"roughnessFactor":0.5
			}
		}
	],
	"meshes":[
		{
			"name":"Object_0",
			"primitives":[
				{
					"attributes":{
						"POSITION":0,
						"NORMAL":1,
						"TEXCOORD_0":2
					},
					"indices":3,
					"material":0
				}
			]
		}
	],
	"textures":[
		{
			"sampler":0,
			"source":0
		}
	],
	"images":[
		{
			"bufferView":4,
			"mimeType":"image/jpeg",
			"name":"Image_0"
		}
	],
	"accessors":[
		{
			"bufferView":0,
			"componentType":5126,
			"count":3235,
			"max":[
				1.0085394382476807,
				-0.009124834090471268,
				3.1903269290924072
			],
			"min":[
				-1.0235307216644287,
				-1.8915693759918213,
				-1.2646775245666504
			],
			"type":"VEC3"
		},
		{
			"bufferView":1,
			"componentType":5126,
			"count":3235,
			"type":"VEC3"
		},
		{
			"bufferView":2,
			"componentType":5126,
			"count":3235,
			"type":"VEC2"
		},
		{
			"bufferView":3,
			"componentType":5123,
			"count":18396,
			"type":"SCALAR"
		}
	],
	"bufferViews":[
		{
			"buffer":0,
			"byteLength":38820,
			"byteOffset":0,
			"target":34962
		},
		{
			"buffer":0,
			"byteLength":38820,
			"byteOffset":38820,
			"target":34962
		},
		{
			"buffer":0,
			"byteLength":25880,
			"byteOffset":77640,
			"target":34962
		},
		{
			"buffer":0,
			"byteLength":36792,
			"byteOffset":103520,
			"target":34963
		},
		{
			"buffer":0,
			"byteLength":473710,
			"byteOffset":140312
		}
	],
	"samplers":[
		{
			"magFilter":9729,
			"minFilter":9987
		}
	],
	"buffers":[
		{
			"byteLength":614024,
			"uri":"data:application/octet-stream;base64,"
		}
	]
}
