{
	"asset":{
		"generator":"Khronos glTF Blender I/O v3.6.28",
		"version":"2.0"
	},
	"scene":0,
	"scenes":[
		{
			"name":"Scene",
			"nodes":[
				0
			]
		}
	],
	"nodes":[
		{
			"mesh":0,
			"name":"Material0.003",
			"scale":[
				1.0200679302215576,
				1.0200679302215576,
				1.0200679302215576
			]
		}
	],
	"materials":[
		{
			"doubleSided":true,
			"name":"Material0_2",
			"pbrMetallicRoughness":{
				"baseColorFactor":[
					0.9372550249099731,
					0.9215689897537231,
					0.9215689897537231,
					1
				],
				"metallicFactor":0,
				"roughnessFactor":0.6000000238418579
			}
		},
		{
			"doubleSided":true,
			"name":"Material0",
			"pbrMetallicRoughness":{
				"baseColorFactor":[
					0.9725490212440491,
					0.9725490212440491,
					0.9725490212440491,
					1
				],
				"metallicFactor":0,
				"roughnessFactor":0.6000000238418579
			}
		},
		{
			"doubleSided":true,
			"name":"Material0_0",
			"pbrMetallicRoughness":{
				"baseColorFactor":[
					0,
					0,
					0,
					1
				],
				"metallicFactor":0,
				"roughnessFactor":0.6545454859733582
			}
		},
		{
			"doubleSided":true,
			"name":"Material0_1",
			"pbrMetallicRoughness":{
				"baseColorFactor":[
					0,
					0,
					0,
					1
				],
				"metallicFactor":0,
				"roughnessFactor":0.06818181276321411
			}
		},
		{
			"doubleSided":true,
			"name":"Material0_3",
			"pbrMetallicRoughness":{
				"baseColorFactor":[
					0.49803900718688965,
					0.49803900718688965,
					0.49803900718688965,
					1
				],
				"metallicFactor":0,
				"roughnessFactor":0.6000000238418579
			}
		},
		{
			"doubleSided":true,
			"name":"Material0_4",
			"pbrMetallicRoughness":{
				"baseColorFactor":[
					0,
					0,
					0,
					1
				],
				"metallicFactor":0,
				"roughnessFactor":0.5181818604469299
			}
		}
	],
	"meshes":[
		{
			"name":"Material0.003",
			"primitives":[
				{
					"attributes":{
						"POSITION":0,
						"NORMAL":1
					},
					"indices":2,
					"material":0
				},
				{
					"attributes":{
						"POSITION":3,
						"NORMAL":4
					},
					"indices":5,
					"material":1
				},
				{
					"attributes":{
						"POSITION":6,
						"NORMAL":7
					},
					"indices":8,
					"material":2
				},
				{
					"attributes":{
						"POSITION":9,
						"NORMAL":10
					},
					"indices":11,
					"material":3
				},
				{
					"attributes":{
						"POSITION":12,
						"NORMAL":13
					},
					"indices":14,
					"material":4
				},
				{
					"attributes":{
						"POSITION":15,
						"NORMAL":16
					},
					"indices":17,
					"material":5
				}
			]
		}
	],
	"accessors":[
		{
			"bufferView":0,
			"componentType":5126,
			"count":2281,
			"max":[
				1.9562735557556152,
				1.8852813243865967,
				1.0062655210494995
			],
			"min":[
				-2.034533739089966,
				-1.7866395711898804,
				-0.9984639883041382
			],
			"type":"VEC3"
		},
		{
			"bufferView":1,
			"componentType":5126,
			"count":2281,
			"type":"VEC3"
		},
		{
			"bufferView":2,
			"componentType":5123,
			"count":4734,
			"type":"SCALAR"
		},
		{
			"bufferView":3,
			"componentType":5126,
			"count":429,
			"max":[
				-0.2832522392272949,
				1.6368449926376343,
				-0.8159408569335938
			],
			"min":[
				-0.35276392102241516,
				1.5723419189453125,
				-0.8561282753944397
			],
			"type":"VEC3"
		},
		{
			"bufferView":4,
			"componentType":5126,
			"count":429,
			"type":"VEC3"
		},
		{
			"bufferView":5,
			"componentType":5123,
			"count":804,
			"type":"SCALAR"
		},
		{
			"bufferView":6,
			"componentType":5126,
			"count":373,
			"max":[
				-0.05893827974796295,
				1.793211817741394,
				-0.8819215893745422
			],
			"min":[
				-0.22621549665927887,
				1.634818196296692,
				-0.9853272438049316
			],
			"type":"VEC3"
		},
		{
			"bufferView":7,
			"componentType":5126,
			"count":373,
			"type":"VEC3"
		},
		{
			"bufferView":8,
			"componentType":5123,
			"count":804,
			"type":"SCALAR"
		},
		{
			"bufferView":9,
			"componentType":5126,
			"count":266,
			"max":[
				1.9564186334609985,
				1.8866209983825684,
				1.0086414813995361
			],
			"min":[
				-2.029372453689575,
				-1.7609331607818604,
				-0.9511029124259949
			],
			"type":"VEC3"
		},
		{
			"bufferView":10,
			"componentType":5126,
			"count":266,
			"type":"VEC3"
		},
		{
			"bufferView":11,
			"componentType":5123,
			"count":660,
			"type":"SCALAR"
		},
		{
			"bufferView":12,
			"componentType":5126,
			"count":371,
			"max":[
				-0.23032596707344055,
				1.6672805547714233,
				-0.8533276319503784
			],
			"min":[
				-0.27336621284484863,
				1.6303226947784424,
				-0.8795387744903564
			],
			"type":"VEC3"
		},
		{
			"bufferView":13,
			"componentType":5126,
			"count":371,
			"type":"VEC3"
		},
		{
			"bufferView":14,
			"componentType":5123,
			"count":480,
			"type":"SCALAR"
		},
		{
			"bufferView":15,
			"componentType":5126,
			"count":96,
			"max":[
				1.078694462776184,
				0.6341516971588135,
				0.38921719789505005
			],
			"min":[
				-0.5138005614280701,
				-0.767742395401001,
				-0.3947511315345764
			],
			"type":"VEC3"
		},
		{
			"bufferView":16,
			"componentType":5126,
			"count":96,
			"type":"VEC3"
		},
		{
			"bufferView":17,
			"componentType":5123,
			"count":144,
			"type":"SCALAR"
		}
	],
	"bufferViews":[
		{
			"buffer":0,
			"byteLength":27372,
			"byteOffset":0,
			"target":34962
		},
		{
			"buffer":0,
			"byteLength":27372,
			"byteOffset":27372,
			"target":34962
		},
		{
			"buffer":0,
			"byteLength":9468,
			"byteOffset":54744,
			"target":34963
		},
		{
			"buffer":0,
			"byteLength":5148,
			"byteOffset":64212,
			"target":34962
		},
		{
			"buffer":0,
			"byteLength":5148,
			"byteOffset":69360,
			"target":34962
		},
		{
			"buffer":0,
			"byteLength":1608,
			"byteOffset":74508,
			"target":34963
		},
		{
			"buffer":0,
			"byteLength":4476,
			"byteOffset":76116,
			"target":34962
		},
		{
			"buffer":0,
			"byteLength":4476,
			"byteOffset":80592,
			"target":34962
		},
		{
			"buffer":0,
			"byteLength":1608,
			"byteOffset":85068,
			"target":34963
		},
		{
			"buffer":0,
			"byteLength":3192,
			"byteOffset":86676,
			"target":34962
		},
		{
			"buffer":0,
			"byteLength":3192,
			"byteOffset":89868,
			"target":34962
		},
		{
			"buffer":0,
			"byteLength":1320,
			"byteOffset":93060,
			"target":34963
		},
		{
			"buffer":0,
			"byteLength":4452,
			"byteOffset":94380,
			"target":34962
		},
		{
			"buffer":0,
			"byteLength":4452,
			"byteOffset":98832,
			"target":34962
		},
		{
			"buffer":0,
			"byteLength":960,
			"byteOffset":103284,
			"target":34963
		},
		{
			"buffer":0,
			"byteLength":1152,
			"byteOffset":104244,
			"target":34962
		},
		{
			"buffer":0,
			"byteLength":1152,
			"byteOffset":105396,
			"target":34962
		},
		{
			"buffer":0,
			"byteLength":288,
			"byteOffset":106548,
			"target":34963
		}
	],
	"buffers":[
		{
			"byteLength":106836,
			"uri":"data:application/octet-stream;base64,"
		}
	]
}
